<?xml version="1.0" standalone="no"?>
<!DOCTYPE svg PUBLIC "-//W3C//DTD SVG 20010904//EN"
 "http://www.w3.org/TR/2001/REC-SVG-20010904/DTD/svg10.dtd">
<svg version="1.0" xmlns="http://www.w3.org/2000/svg"
 width="512.000000pt" height="512.000000pt" viewBox="0 0 512.000000 512.000000"
 preserveAspectRatio="xMidYMid meet">
<metadata>
Created by potrace 1.11, written by Peter Selinger 2001-2013
</metadata>
<g transform="translate(0.000000,512.000000) scale(0.100000,-0.100000)"
fill="#000000" stroke="none">
<path d="M2378 5115 c-1 -1 -39 -5 -82 -9 -44 -4 -82 -8 -85 -10 -3 -2 -28 -7
-56 -10 -112 -14 -302 -61 -440 -109 -252 -88 -512 -230 -725 -396 -260 -202
-507 -487 -653 -753 -71 -129 -84 -155 -124 -248 -73 -167 -127 -337 -162
-510 -38 -190 -46 -274 -45 -520 0 -183 3 -241 19 -345 3 -16 7 -43 9 -60 22
-159 101 -431 171 -590 268 -613 726 -1072 1340 -1345 28 -12 59 -26 70 -31
97 -44 390 -123 531 -144 22 -4 50 -8 64 -11 103 -19 468 -26 610 -11 624 62
1214 363 1640 833 161 178 278 350 389 572 185 369 265 712 266 1137 0 204
-13 360 -40 485 -3 14 -10 46 -15 71 -23 115 -94 335 -149 463 -307 704 -909
1233 -1646 1446 -93 27 -145 39 -280 64 -16 3 -50 8 -75 12 -25 3 -56 8 -70
10 -27 6 -456 14 -462 9z"/>
</g>
</svg>
